<svg width="495" height="68" viewBox="0 0 495 68" fill="none" xmlns="http://www.w3.org/2000/svg">
<g filter="url(#filter0_d)">
<path d="M23.2698 48.64C19.9418 48.64 16.8698 48.0853 14.0538 46.976C11.2804 45.824 8.84842 44.224 6.75775 42.176C4.70975 40.0853 3.10975 37.632 1.95775 34.816C0.848417 32 0.29375 28.928 0.29375 25.6C0.29375 22.272 0.848417 19.2 1.95775 16.384C3.10975 13.568 4.70975 11.136 6.75775 9.088C8.84842 6.99733 11.2804 5.39733 14.0538 4.288C16.8698 3.136 19.9418 2.56 23.2698 2.56C25.6164 2.56 27.8778 2.85866 30.0538 3.456C32.2298 4.01066 34.1711 4.864 35.8778 6.016C36.0911 6.144 36.2404 6.31466 36.3258 6.528C36.4111 6.69866 36.4538 6.89066 36.4538 7.104C36.4538 7.53067 36.3044 7.85067 36.0058 8.064C35.7071 8.27733 35.4511 8.384 35.2378 8.384C35.0671 8.384 34.9178 8.36267 34.7898 8.32C34.6618 8.23466 34.5338 8.17066 34.4058 8.128C32.8271 7.232 31.0991 6.50666 29.2218 5.952C27.3444 5.39733 25.3604 5.12 23.2698 5.12C19.3018 5.12 15.7818 6.016 12.7098 7.808C9.68042 9.55733 7.29108 11.968 5.54175 15.04C3.83508 18.112 2.98175 21.632 2.98175 25.6C2.98175 29.568 3.83508 33.1093 5.54175 36.224C7.29108 39.296 9.68042 41.7067 12.7098 43.456C15.7818 45.2053 19.3018 46.08 23.2698 46.08C25.4031 46.08 27.4938 45.76 29.5418 45.12C31.6324 44.4373 33.4671 43.5627 35.0458 42.496L34.7898 43.648V27.648L35.6858 28.48H23.2698C22.9284 28.48 22.6298 28.352 22.3738 28.096C22.1178 27.84 21.9898 27.5413 21.9898 27.2C21.9898 26.816 22.1178 26.5173 22.3738 26.304C22.6298 26.048 22.9284 25.92 23.2698 25.92H36.0698C36.4538 25.92 36.7524 26.048 36.9658 26.304C37.2218 26.56 37.3498 26.8587 37.3498 27.2V43.264C37.3498 43.4347 37.3071 43.6267 37.2218 43.84C37.1364 44.0533 36.9871 44.2453 36.7738 44.416C34.8964 45.696 32.7844 46.72 30.4378 47.488C28.1338 48.256 25.7444 48.64 23.2698 48.64ZM75.1952 15.68C77.7552 15.68 79.8672 16.2347 81.5312 17.344C83.2379 18.4533 84.4966 19.9467 85.3072 21.824C86.1606 23.7013 86.5872 25.7707 86.5872 28.032V46.72C86.5872 47.0613 86.4592 47.36 86.2032 47.616C85.9472 47.872 85.6486 48 85.3072 48C84.9232 48 84.6032 47.872 84.3472 47.616C84.1339 47.36 84.0272 47.0613 84.0272 46.72V28.032C84.0272 26.1973 83.7286 24.5333 83.1312 23.04C82.5339 21.5467 81.5952 20.352 80.3152 19.456C79.0352 18.56 77.3286 18.112 75.1952 18.112C73.3606 18.112 71.5686 18.56 69.8192 19.456C68.0699 20.352 66.6192 21.5467 65.4672 23.04C64.3579 24.5333 63.8032 26.1973 63.8032 28.032V46.72C63.8032 47.0613 63.6752 47.36 63.4192 47.616C63.1632 47.872 62.8646 48 62.5232 48C62.1392 48 61.8192 47.872 61.5632 47.616C61.3499 47.36 61.2432 47.0613 61.2432 46.72V1.92C61.2432 1.57866 61.3712 1.28 61.6272 1.024C61.8832 0.767999 62.1819 0.639999 62.5232 0.639999C62.9072 0.639999 63.2059 0.767999 63.4192 1.024C63.6752 1.28 63.8032 1.57866 63.8032 1.92V24.256L62.2032 27.328C62.2032 25.792 62.5872 24.32 63.3552 22.912C64.1232 21.504 65.1259 20.2667 66.3632 19.2C67.6432 18.0907 69.0512 17.2373 70.5872 16.64C72.1232 16 73.6592 15.68 75.1952 15.68ZM140.893 31.872C140.893 35.0293 140.21 37.888 138.845 40.448C137.479 42.9653 135.602 44.9707 133.213 46.464C130.866 47.9147 128.178 48.64 125.149 48.64C122.162 48.64 119.474 47.9147 117.085 46.464C114.695 44.9707 112.797 42.9653 111.389 40.448C110.023 37.888 109.341 35.0293 109.341 31.872C109.341 28.672 110.023 25.8133 111.389 23.296C112.797 20.736 114.695 18.7307 117.085 17.28C119.474 15.7867 122.162 15.04 125.149 15.04C128.178 15.04 130.866 15.7867 133.213 17.28C135.602 18.7307 137.479 20.736 138.845 23.296C140.21 25.8133 140.893 28.672 140.893 31.872ZM138.333 31.872C138.333 29.0987 137.757 26.6453 136.605 24.512C135.495 22.336 133.938 20.6293 131.933 19.392C129.97 18.112 127.709 17.472 125.149 17.472C122.631 17.472 120.37 18.112 118.365 19.392C116.359 20.6293 114.781 22.336 113.629 24.512C112.477 26.6453 111.901 29.0987 111.901 31.872C111.901 34.6027 112.477 37.056 113.629 39.232C114.781 41.3653 116.359 43.072 118.365 44.352C120.37 45.5893 122.631 46.208 125.149 46.208C127.709 46.208 129.97 45.5893 131.933 44.352C133.938 43.072 135.495 41.3653 136.605 39.232C137.757 37.056 138.333 34.6027 138.333 31.872ZM161.876 42.88C161.578 42.368 161.428 41.9627 161.428 41.664C161.471 41.3227 161.642 41.0453 161.94 40.832C162.154 40.6187 162.431 40.5333 162.772 40.576C163.156 40.576 163.476 40.7253 163.732 41.024C164.842 42.6027 166.25 43.8827 167.956 44.864C169.706 45.8453 171.754 46.336 174.1 46.336C175.508 46.336 176.852 46.1013 178.132 45.632C179.455 45.1627 180.522 44.4587 181.332 43.52C182.186 42.5813 182.612 41.4293 182.612 40.064C182.612 38.6133 182.207 37.4613 181.396 36.608C180.586 35.712 179.54 35.008 178.26 34.496C176.98 33.984 175.636 33.5573 174.228 33.216C172.735 32.832 171.306 32.4053 169.94 31.936C168.618 31.424 167.444 30.8053 166.42 30.08C165.396 29.312 164.586 28.416 163.988 27.392C163.391 26.368 163.092 25.152 163.092 23.744C163.092 22.08 163.54 20.5867 164.436 19.264C165.332 17.9413 166.591 16.9173 168.212 16.192C169.834 15.424 171.711 15.04 173.844 15.04C174.868 15.04 175.956 15.168 177.108 15.424C178.26 15.68 179.412 16.128 180.564 16.768C181.716 17.3653 182.783 18.2187 183.764 19.328C184.106 19.584 184.255 19.904 184.212 20.288C184.212 20.6293 184.063 20.9493 183.764 21.248C183.508 21.4187 183.231 21.504 182.932 21.504C182.634 21.504 182.378 21.376 182.164 21.12C181.055 19.8827 179.754 18.9653 178.26 18.368C176.81 17.7707 175.252 17.472 173.588 17.472C172.18 17.472 170.858 17.7067 169.62 18.176C168.426 18.6453 167.444 19.3493 166.676 20.288C165.908 21.184 165.524 22.336 165.524 23.744C165.61 25.0667 166.058 26.1547 166.868 27.008C167.722 27.8613 168.831 28.5653 170.196 29.12C171.604 29.6747 173.183 30.1867 174.932 30.656C176.34 30.9973 177.642 31.4027 178.836 31.872C180.074 32.2987 181.14 32.8533 182.036 33.536C182.975 34.2187 183.7 35.072 184.212 36.096C184.767 37.12 185.044 38.4 185.044 39.936C185.044 41.728 184.554 43.2853 183.572 44.608C182.634 45.888 181.311 46.8907 179.604 47.616C177.94 48.2987 176.02 48.64 173.844 48.64C171.626 48.64 169.492 48.192 167.444 47.296C165.396 46.4 163.54 44.928 161.876 42.88ZM204.874 15.808H219.722C220.064 15.808 220.341 15.936 220.554 16.192C220.81 16.448 220.938 16.7253 220.938 17.024C220.938 17.3653 220.81 17.664 220.554 17.92C220.341 18.1333 220.064 18.24 219.722 18.24H204.874C204.576 18.24 204.298 18.112 204.042 17.856C203.786 17.6 203.658 17.3227 203.658 17.024C203.658 16.6827 203.786 16.4053 204.042 16.192C204.298 15.936 204.576 15.808 204.874 15.808ZM211.402 6.4C211.786 6.4 212.085 6.528 212.298 6.784C212.554 7.04 212.682 7.33867 212.682 7.68V41.024C212.682 42.432 212.853 43.4773 213.194 44.16C213.578 44.8 214.048 45.2267 214.602 45.44C215.157 45.6107 215.69 45.696 216.202 45.696C216.501 45.696 216.757 45.6533 216.97 45.568C217.184 45.4827 217.44 45.44 217.738 45.44C218.037 45.44 218.293 45.568 218.506 45.824C218.72 46.0373 218.826 46.2933 218.826 46.592C218.826 46.976 218.57 47.3173 218.058 47.616C217.589 47.872 216.992 48 216.266 48C216.01 48 215.541 48 214.858 48C214.218 47.9573 213.514 47.7653 212.746 47.424C212.021 47.04 211.402 46.3787 210.89 45.44C210.378 44.4587 210.122 43.0293 210.122 41.152V7.68C210.122 7.33867 210.25 7.04 210.506 6.784C210.762 6.528 211.061 6.4 211.402 6.4ZM308.358 6.912C308.7 7.168 308.892 7.46666 308.934 7.808C308.977 8.10666 308.892 8.42666 308.678 8.768C308.465 9.06667 308.188 9.23733 307.846 9.28C307.548 9.28 307.249 9.19467 306.95 9.024C305.158 7.78667 303.196 6.80533 301.062 6.08C298.972 5.35466 296.732 4.992 294.342 4.992C291.612 4.992 289.052 5.504 286.662 6.528C284.316 7.50933 282.246 8.91733 280.454 10.752C278.662 12.5867 277.254 14.7627 276.23 17.28C275.206 19.7973 274.694 22.5707 274.694 25.6C274.694 28.6293 275.206 31.4027 276.23 33.92C277.254 36.4373 278.662 38.6133 280.454 40.448C282.246 42.2827 284.316 43.712 286.662 44.736C289.052 45.7173 291.612 46.208 294.342 46.208C296.732 46.208 298.972 45.8453 301.062 45.12C303.153 44.3947 305.094 43.4347 306.886 42.24C307.185 42.0267 307.505 41.9413 307.846 41.984C308.188 42.0267 308.465 42.1973 308.678 42.496C308.892 42.7947 308.977 43.1147 308.934 43.456C308.892 43.7973 308.721 44.0747 308.422 44.288C307.398 45.0133 306.097 45.7173 304.518 46.4C302.982 47.0827 301.34 47.616 299.59 48C297.841 48.4267 296.092 48.64 294.342 48.64C291.27 48.64 288.39 48.064 285.702 46.912C283.014 45.76 280.646 44.16 278.598 42.112C276.55 40.0213 274.929 37.5893 273.734 34.816C272.582 32 272.006 28.928 272.006 25.6C272.006 22.272 272.582 19.2213 273.734 16.448C274.929 13.632 276.55 11.2 278.598 9.152C280.646 7.06133 283.014 5.44 285.702 4.288C288.39 3.136 291.27 2.56 294.342 2.56C296.945 2.56 299.441 2.944 301.83 3.712C304.262 4.48 306.438 5.54667 308.358 6.912ZM333.773 46.72C333.773 47.0613 333.645 47.36 333.389 47.616C333.133 47.872 332.835 48 332.493 48C332.109 48 331.789 47.872 331.533 47.616C331.32 47.36 331.213 47.0613 331.213 46.72V1.92C331.213 1.57866 331.341 1.28 331.597 1.024C331.853 0.767999 332.152 0.639999 332.493 0.639999C332.877 0.639999 333.176 0.767999 333.389 1.024C333.645 1.28 333.773 1.57866 333.773 1.92V46.72ZM372.625 48.64C369.425 48.64 366.587 47.9573 364.113 46.592C361.681 45.2267 359.761 43.3067 358.353 40.832C356.945 38.3147 356.241 35.3707 356.241 32C356.241 28.416 356.923 25.3653 358.289 22.848C359.697 20.3307 361.489 18.4107 363.665 17.088C365.883 15.7227 368.23 15.04 370.705 15.04C372.497 15.04 374.246 15.3387 375.953 15.936C377.659 16.4907 379.174 17.3867 380.497 18.624C381.862 19.8187 382.95 21.3333 383.761 23.168C384.614 24.96 385.083 27.1147 385.169 29.632C385.169 29.9733 385.041 30.2933 384.785 30.592C384.529 30.848 384.23 30.976 383.889 30.976H357.777L357.393 28.544H383.185L382.545 29.12V27.968C382.331 25.7067 381.606 23.808 380.369 22.272C379.174 20.736 377.723 19.584 376.017 18.816C374.31 18.0053 372.539 17.6 370.705 17.6C369.425 17.6 368.081 17.8987 366.673 18.496C365.265 19.0507 363.963 19.9253 362.769 21.12C361.574 22.272 360.593 23.744 359.825 25.536C359.099 27.328 358.737 29.4187 358.737 31.808C358.737 34.4107 359.249 36.8 360.273 38.976C361.339 41.152 362.897 42.9013 364.945 44.224C367.035 45.5467 369.595 46.208 372.625 46.208C374.075 46.208 375.441 45.9733 376.721 45.504C378.001 44.992 379.153 44.3307 380.177 43.52C381.201 42.7093 382.033 41.8347 382.673 40.896C383.014 40.512 383.377 40.32 383.761 40.32C384.059 40.32 384.315 40.448 384.529 40.704C384.742 40.9173 384.849 41.1733 384.849 41.472C384.849 41.7707 384.763 42.0267 384.593 42.24C383.27 43.9467 381.563 45.44 379.473 46.72C377.425 48 375.142 48.64 372.625 48.64ZM434.369 16.064C434.753 16.064 435.052 16.192 435.265 16.448C435.521 16.704 435.649 17.0027 435.649 17.344V46.72C435.649 47.0613 435.521 47.36 435.265 47.616C435.009 47.872 434.711 48 434.369 48C433.985 48 433.665 47.872 433.409 47.616C433.196 47.36 433.089 47.0613 433.089 46.72V37.632L434.113 36.8C434.113 38.1653 433.772 39.552 433.089 40.96C432.407 42.368 431.468 43.648 430.273 44.8C429.079 45.952 427.671 46.8907 426.049 47.616C424.428 48.2987 422.679 48.64 420.801 48.64C417.943 48.64 415.383 47.8933 413.121 46.4C410.903 44.9067 409.153 42.88 407.873 40.32C406.593 37.76 405.953 34.88 405.953 31.68C405.953 28.4373 406.593 25.5787 407.873 23.104C409.196 20.5867 410.967 18.624 413.185 17.216C415.447 15.7653 417.985 15.04 420.801 15.04C422.636 15.04 424.364 15.3813 425.985 16.064C427.607 16.704 429.015 17.6213 430.209 18.816C431.447 20.0107 432.407 21.4187 433.089 23.04C433.772 24.6187 434.113 26.3467 434.113 28.224L433.089 26.624V17.344C433.089 17.0027 433.196 16.704 433.409 16.448C433.665 16.192 433.985 16.064 434.369 16.064ZM420.929 46.208C423.319 46.208 425.452 45.5893 427.329 44.352C429.207 43.072 430.679 41.344 431.745 39.168C432.812 36.9493 433.345 34.4533 433.345 31.68C433.345 29.0347 432.812 26.6453 431.745 24.512C430.679 22.336 429.207 20.6293 427.329 19.392C425.452 18.112 423.319 17.472 420.929 17.472C418.583 17.472 416.471 18.0907 414.593 19.328C412.716 20.5227 411.223 22.1867 410.113 24.32C409.047 26.4533 408.513 28.9067 408.513 31.68C408.513 34.4533 409.047 36.9493 410.113 39.168C411.18 41.344 412.652 43.072 414.529 44.352C416.407 45.5893 418.54 46.208 420.929 46.208ZM461.936 48C461.552 48 461.232 47.872 460.976 47.616C460.762 47.36 460.656 47.0613 460.656 46.72V17.344C460.656 17.0027 460.784 16.704 461.04 16.448C461.296 16.192 461.594 16.064 461.936 16.064C462.32 16.064 462.618 16.192 462.832 16.448C463.088 16.704 463.216 17.0027 463.216 17.344V28.16L462.128 29.824C462.128 28.16 462.405 26.4747 462.96 24.768C463.557 23.0613 464.41 21.4827 465.52 20.032C466.629 18.5387 467.973 17.344 469.552 16.448C471.173 15.5093 473.029 15.04 475.12 15.04C475.717 15.04 476.357 15.1253 477.04 15.296C477.722 15.4667 478.064 15.872 478.064 16.512C478.064 16.896 477.957 17.216 477.744 17.472C477.53 17.728 477.253 17.856 476.912 17.856C476.656 17.856 476.336 17.7707 475.952 17.6C475.61 17.3867 475.098 17.28 474.416 17.28C473.05 17.28 471.706 17.6853 470.384 18.496C469.061 19.3067 467.845 20.3947 466.736 21.76C465.669 23.0827 464.816 24.5333 464.176 26.112C463.536 27.6907 463.216 29.2267 463.216 30.72V46.72C463.216 47.0613 463.088 47.36 462.832 47.616C462.576 47.872 462.277 48 461.936 48Z" fill="white"/>
</g>
<defs>
<filter id="filter0_d" x="0.293762" y="0.640015" width="493.77" height="67" filterUnits="userSpaceOnUse" color-interpolation-filters="sRGB">
<feFlood flood-opacity="0" result="BackgroundImageFix"/>
<feColorMatrix in="SourceAlpha" type="matrix" values="0 0 0 0 0 0 0 0 0 0 0 0 0 0 0 0 0 0 127 0"/>
<feOffset dx="12" dy="15"/>
<feGaussianBlur stdDeviation="2"/>
<feColorMatrix type="matrix" values="0 0 0 0 0 0 0 0 0 0 0 0 0 0 0 0 0 0 0.25 0"/>
<feBlend mode="normal" in2="BackgroundImageFix" result="effect1_dropShadow"/>
<feBlend mode="normal" in="SourceGraphic" in2="effect1_dropShadow" result="shape"/>
</filter>
</defs>
</svg>
