<svg width="526" height="317" viewBox="0 0 526 317" fill="none" xmlns="http://www.w3.org/2000/svg">
<g filter="url(#filter0_d)">
<path d="M492.285 30.275L21.1824 269.173" stroke="white"/>
<path d="M500.155 274.353L23.303 26.1823" stroke="white"/>
<circle cx="22.851" cy="20.6781" r="20.5" transform="rotate(90.5 22.851 20.6781)" fill="white"/>
<circle cx="22.851" cy="20.6781" r="17.5" transform="rotate(90.5 22.851 20.6781)" fill="#1AE794"/>
<circle cx="20.6781" cy="269.669" r="20.5" transform="rotate(90.5 20.6781 269.669)" fill="white"/>
<circle cx="20.6781" cy="269.669" r="17.5" transform="rotate(90.5 20.6781 269.669)" fill="#1AE794"/>
<circle cx="501.833" cy="24.8581" r="20.5" transform="rotate(90.5 501.833 24.8581)" fill="white"/>
<circle cx="501.833" cy="24.8581" r="17.5" transform="rotate(90.5 501.833 24.8581)" fill="#1AE794"/>
<circle cx="499.66" cy="273.849" r="20.5" transform="rotate(90.5 499.66 273.849)" fill="white"/>
<circle cx="499.66" cy="273.849" r="17.5" transform="rotate(90.5 499.66 273.849)" fill="#1AE794"/>
</g>
<defs>
<filter id="filter0_d" x="0" y="0" width="535.511" height="316.527" filterUnits="userSpaceOnUse" color-interpolation-filters="sRGB">
<feFlood flood-opacity="0" result="BackgroundImageFix"/>
<feColorMatrix in="SourceAlpha" type="matrix" values="0 0 0 0 0 0 0 0 0 0 0 0 0 0 0 0 0 0 127 0"/>
<feOffset dx="11" dy="20"/>
<feGaussianBlur stdDeviation="1"/>
<feColorMatrix type="matrix" values="0 0 0 0 0 0 0 0 0 0 0 0 0 0 0 0 0 0 0.25 0"/>
<feBlend mode="normal" in2="BackgroundImageFix" result="effect1_dropShadow"/>
<feBlend mode="normal" in="SourceGraphic" in2="effect1_dropShadow" result="shape"/>
</filter>
</defs>
</svg>
