<svg width="76" height="74" viewBox="0 0 76 74" fill="none" xmlns="http://www.w3.org/2000/svg">
<g filter="url(#filter0_d)">
<path d="M60.7031 54.1406H13.6719V11.4844C13.6719 11.1836 13.4258 10.9375 13.125 10.9375H9.29688C8.99609 10.9375 8.75 11.1836 8.75 11.4844V58.5156C8.75 58.8164 8.99609 59.0625 9.29688 59.0625H60.7031C61.0039 59.0625 61.25 58.8164 61.25 58.5156V54.6875C61.25 54.3867 61.0039 54.1406 60.7031 54.1406ZM19.6875 48.6719H23.5156C23.8164 48.6719 24.0625 48.4258 24.0625 48.125V38.2812C24.0625 37.9805 23.8164 37.7344 23.5156 37.7344H19.6875C19.3867 37.7344 19.1406 37.9805 19.1406 38.2812V48.125C19.1406 48.4258 19.3867 48.6719 19.6875 48.6719ZM30.0781 48.6719H33.9062C34.207 48.6719 34.4531 48.4258 34.4531 48.125V26.25C34.4531 25.9492 34.207 25.7031 33.9062 25.7031H30.0781C29.7773 25.7031 29.5312 25.9492 29.5312 26.25V48.125C29.5312 48.4258 29.7773 48.6719 30.0781 48.6719ZM40.4688 48.6719H44.2969C44.5977 48.6719 44.8438 48.4258 44.8438 48.125V31.582C44.8438 31.2812 44.5977 31.0352 44.2969 31.0352H40.4688C40.168 31.0352 39.9219 31.2812 39.9219 31.582V48.125C39.9219 48.4258 40.168 48.6719 40.4688 48.6719ZM50.8594 48.6719H54.6875C54.9883 48.6719 55.2344 48.4258 55.2344 48.125V20.7812C55.2344 20.4805 54.9883 20.2344 54.6875 20.2344H50.8594C50.5586 20.2344 50.3125 20.4805 50.3125 20.7812V48.125C50.3125 48.4258 50.5586 48.6719 50.8594 48.6719Z" fill="#3E5D6D"/>
</g>
<defs>
<filter id="filter0_d" x="0" y="0" width="84" height="84" filterUnits="userSpaceOnUse" color-interpolation-filters="sRGB">
<feFlood flood-opacity="0" result="BackgroundImageFix"/>
<feColorMatrix in="SourceAlpha" type="matrix" values="0 0 0 0 0 0 0 0 0 0 0 0 0 0 0 0 0 0 127 0"/>
<feOffset dx="10" dy="10"/>
<feGaussianBlur stdDeviation="2"/>
<feColorMatrix type="matrix" values="0 0 0 0 0 0 0 0 0 0 0 0 0 0 0 0 0 0 0.25 0"/>
<feBlend mode="normal" in2="BackgroundImageFix" result="effect1_dropShadow"/>
<feBlend mode="normal" in="SourceGraphic" in2="effect1_dropShadow" result="shape"/>
</filter>
</defs>
</svg>
