<svg width="321" height="321" viewBox="0 0 321 321" fill="none" xmlns="http://www.w3.org/2000/svg">
<g filter="url(#filter0_d)">
<path d="M296.875 269.318H28.125V3.40909C28.125 1.53409 26.7188 0 25 0H3.125C1.40625 0 0 1.53409 0 3.40909V296.591C0 298.466 1.40625 300 3.125 300H296.875C298.594 300 300 298.466 300 296.591V272.727C300 270.852 298.594 269.318 296.875 269.318ZM62.5 235.227H84.375C86.0938 235.227 87.5 233.693 87.5 231.818V170.455C87.5 168.58 86.0938 167.045 84.375 167.045H62.5C60.7812 167.045 59.375 168.58 59.375 170.455V231.818C59.375 233.693 60.7812 235.227 62.5 235.227ZM121.875 235.227H143.75C145.469 235.227 146.875 233.693 146.875 231.818V95.4545C146.875 93.5795 145.469 92.0455 143.75 92.0455H121.875C120.156 92.0455 118.75 93.5795 118.75 95.4545V231.818C118.75 233.693 120.156 235.227 121.875 235.227ZM181.25 235.227H203.125C204.844 235.227 206.25 233.693 206.25 231.818V128.693C206.25 126.818 204.844 125.284 203.125 125.284H181.25C179.531 125.284 178.125 126.818 178.125 128.693V231.818C178.125 233.693 179.531 235.227 181.25 235.227ZM240.625 235.227H262.5C264.219 235.227 265.625 233.693 265.625 231.818V61.3636C265.625 59.4886 264.219 57.9545 262.5 57.9545H240.625C238.906 57.9545 237.5 59.4886 237.5 61.3636V231.818C237.5 233.693 238.906 235.227 240.625 235.227Z" fill="white"/>
</g>
<defs>
<filter id="filter0_d" x="0" y="0" width="321" height="321" filterUnits="userSpaceOnUse" color-interpolation-filters="sRGB">
<feFlood flood-opacity="0" result="BackgroundImageFix"/>
<feColorMatrix in="SourceAlpha" type="matrix" values="0 0 0 0 0 0 0 0 0 0 0 0 0 0 0 0 0 0 127 0"/>
<feOffset dx="17" dy="17"/>
<feGaussianBlur stdDeviation="2"/>
<feColorMatrix type="matrix" values="0 0 0 0 0 0 0 0 0 0 0 0 0 0 0 0 0 0 0.25 0"/>
<feBlend mode="normal" in2="BackgroundImageFix" result="effect1_dropShadow"/>
<feBlend mode="normal" in="SourceGraphic" in2="effect1_dropShadow" result="shape"/>
</filter>
</defs>
</svg>
