<svg width="80" height="80" viewBox="0 0 80 80" fill="none" xmlns="http://www.w3.org/2000/svg">
<g filter="url(#filter0_d)">
<path d="M50.3125 35.0218C47.0168 35.0249 43.81 36.0912 41.1687 38.0624L31.9375 28.8311C33.9319 26.2091 35.0081 23.0036 35 19.7093C35.0086 16.2594 33.852 12.9076 31.7176 10.1973C29.5831 7.48691 26.596 5.57673 23.2402 4.77631C19.8844 3.97589 16.3567 4.33213 13.2287 5.78729C10.1007 7.24246 7.55578 9.71129 6.00632 12.7937C4.45686 15.876 3.99369 19.3913 4.69187 22.7699C5.39004 26.1484 7.20865 29.1921 9.85297 31.4079C12.4973 33.6236 15.8124 34.8814 19.2609 34.9775C22.7095 35.0736 26.0895 34.0024 28.8531 31.9374L38.0625 41.1686C35.998 43.9315 34.9268 47.3104 35.0222 50.7581C35.1177 54.2057 36.3743 57.5202 38.5884 60.1646C40.8026 62.809 43.8447 64.6284 47.2219 65.3282C50.5991 66.028 54.1137 65.5672 57.1964 64.0204C60.279 62.4736 62.7492 59.9313 64.2067 56.8055C65.6643 53.6796 66.0239 50.1533 65.2273 46.7976C64.4307 43.4418 62.5246 40.4533 59.8176 38.3161C57.1106 36.1789 53.7614 35.0181 50.3125 35.0218ZM8.74997 19.7093C8.74997 17.546 9.39144 15.4314 10.5933 13.6327C11.7951 11.834 13.5033 10.4322 15.5019 9.60433C17.5004 8.77649 19.6996 8.55989 21.8213 8.98192C23.9429 9.40395 25.8918 10.4456 27.4215 11.9753C28.9511 13.5049 29.9928 15.4538 30.4148 17.5755C30.8368 19.6971 30.6202 21.8963 29.7924 23.8949C28.9646 25.8934 27.5627 27.6016 25.764 28.8035C23.9654 30.0053 21.8507 30.6468 19.6875 30.6468C16.7867 30.6468 14.0047 29.4944 11.9535 27.4432C9.90231 25.3921 8.74997 22.6101 8.74997 19.7093Z" fill="#3E5D6D"/>
</g>
<defs>
<filter id="filter0_d" x="0" y="0" width="84" height="84" filterUnits="userSpaceOnUse" color-interpolation-filters="sRGB">
<feFlood flood-opacity="0" result="BackgroundImageFix"/>
<feColorMatrix in="SourceAlpha" type="matrix" values="0 0 0 0 0 0 0 0 0 0 0 0 0 0 0 0 0 0 127 0"/>
<feOffset dx="10" dy="10"/>
<feGaussianBlur stdDeviation="2"/>
<feColorMatrix type="matrix" values="0 0 0 0 0 0 0 0 0 0 0 0 0 0 0 0 0 0 0.25 0"/>
<feBlend mode="normal" in2="BackgroundImageFix" result="effect1_dropShadow"/>
<feBlend mode="normal" in="SourceGraphic" in2="effect1_dropShadow" result="shape"/>
</filter>
</defs>
</svg>
