<svg width="99" height="85" viewBox="0 0 99 85" fill="none" xmlns="http://www.w3.org/2000/svg">
<g filter="url(#filter0_d)">
<path fill-rule="evenodd" clip-rule="evenodd" d="M26.7803 55.7812H58.2197C57.5983 52.0611 55.6777 48.682 52.7994 46.2446C49.9211 43.8072 46.2716 42.4696 42.5 42.4696C38.7284 42.4696 35.0789 43.8072 32.2006 46.2446C29.3223 48.682 27.4017 52.0611 26.7803 55.7812ZM21.25 58.4375C21.25 52.8017 23.4888 47.3966 27.474 43.4115C31.4591 39.4263 36.8642 37.1875 42.5 37.1875C48.1358 37.1875 53.5409 39.4263 57.526 43.4115C61.5112 47.3966 63.75 52.8017 63.75 58.4375C63.75 59.142 63.4701 59.8176 62.972 60.3158C62.4739 60.8139 61.7982 61.0938 61.0938 61.0938H23.9062C23.2018 61.0938 22.5261 60.8139 22.028 60.3158C21.5299 59.8176 21.25 59.142 21.25 58.4375ZM42.5 15.9375C43.2045 15.9375 43.8801 16.2174 44.3783 16.7155C44.8764 17.2136 45.1562 17.8893 45.1562 18.5938V29.2188C45.1562 29.9232 44.8764 30.5989 44.3783 31.097C43.8801 31.5951 43.2045 31.875 42.5 31.875C41.7955 31.875 41.1199 31.5951 40.6217 31.097C40.1236 30.5989 39.8438 29.9232 39.8438 29.2188V18.5938C39.8438 17.8893 40.1236 17.2136 40.6217 16.7155C41.1199 16.2174 41.7955 15.9375 42.5 15.9375ZM85 58.4375C85 59.142 84.7201 59.8176 84.222 60.3158C83.7239 60.8139 83.0482 61.0938 82.3438 61.0938H71.7188C71.0143 61.0938 70.3386 60.8139 69.8405 60.3158C69.3424 59.8176 69.0625 59.142 69.0625 58.4375C69.0625 57.733 69.3424 57.0574 69.8405 56.5592C70.3386 56.0611 71.0143 55.7812 71.7188 55.7812H82.3438C83.0482 55.7812 83.7239 56.0611 84.222 56.5592C84.7201 57.0574 85 57.733 85 58.4375ZM15.9375 58.4375C15.9375 59.142 15.6576 59.8176 15.1595 60.3158C14.6614 60.8139 13.9857 61.0938 13.2812 61.0938H2.65625C1.95177 61.0938 1.27614 60.8139 0.777998 60.3158C0.279854 59.8176 0 59.142 0 58.4375C0 57.733 0.279854 57.0574 0.777998 56.5592C1.27614 56.0611 1.95177 55.7812 2.65625 55.7812H13.2812C13.9857 55.7812 14.6614 56.0611 15.1595 56.5592C15.6576 57.0574 15.9375 57.733 15.9375 58.4375ZM72.5528 28.3847C73.0508 28.8828 73.3305 29.5583 73.3305 30.2627C73.3305 30.967 73.0508 31.6425 72.5528 32.1406L65.0409 39.6525C64.7959 39.9062 64.5028 40.1086 64.1787 40.2478C63.8547 40.387 63.5061 40.4603 63.1534 40.4633C62.8007 40.4664 62.4509 40.3992 62.1245 40.2656C61.7981 40.1321 61.5015 39.9348 61.2521 39.6854C61.0027 39.436 60.8054 39.1394 60.6719 38.813C60.5383 38.4866 60.4711 38.1368 60.4742 37.7841C60.4772 37.4314 60.5505 37.0828 60.6897 36.7588C60.8289 36.4347 61.0313 36.1416 61.285 35.8966L68.7969 28.3847C69.295 27.8867 69.9705 27.607 70.6748 27.607C71.3792 27.607 72.0547 27.8867 72.5528 28.3847ZM23.715 39.6525C23.2169 40.1505 22.5414 40.4302 21.837 40.4302C21.1327 40.4302 20.4572 40.1505 19.9591 39.6525L12.4472 32.1406C11.9633 31.6397 11.6956 30.9687 11.7016 30.2722C11.7077 29.5758 11.9871 28.9095 12.4795 28.417C12.972 27.9246 13.6383 27.6452 14.3347 27.6391C15.0312 27.6331 15.7022 27.9008 16.2031 28.3847L23.715 35.8966C24.213 36.3947 24.4927 37.0702 24.4927 37.7745C24.4927 38.4789 24.213 39.1544 23.715 39.6525Z" fill="#3E5D6D"/>
</g>
<defs>
<filter id="filter0_d" x="0" y="0" width="99" height="99" filterUnits="userSpaceOnUse" color-interpolation-filters="sRGB">
<feFlood flood-opacity="0" result="BackgroundImageFix"/>
<feColorMatrix in="SourceAlpha" type="matrix" values="0 0 0 0 0 0 0 0 0 0 0 0 0 0 0 0 0 0 127 0"/>
<feOffset dx="10" dy="10"/>
<feGaussianBlur stdDeviation="2"/>
<feColorMatrix type="matrix" values="0 0 0 0 0 0 0 0 0 0 0 0 0 0 0 0 0 0 0.25 0"/>
<feBlend mode="normal" in2="BackgroundImageFix" result="effect1_dropShadow"/>
<feBlend mode="normal" in="SourceGraphic" in2="effect1_dropShadow" result="shape"/>
</filter>
</defs>
</svg>
