<svg width="377" height="499" viewBox="0 0 377 499" fill="none" xmlns="http://www.w3.org/2000/svg">
<g filter="url(#filter0_d)">
<path d="M234.021 89.6667C258.725 89.6667 278.937 69.4917 278.937 44.8334C278.937 20.175 258.725 0 234.021 0C209.316 0 189.104 20.175 189.104 44.8334C189.104 69.4917 209.316 89.6667 234.021 89.6667ZM162.828 358.667L175.629 302.625L222.791 347.458V459.542C222.791 471.871 232.898 481.959 245.25 481.959C257.602 481.959 267.708 471.871 267.708 459.542V333.112C267.708 320.783 262.767 309.126 253.784 300.608L220.546 269L234.021 201.75C259.329 230.63 293.976 249.745 331.939 255.774C345.414 257.792 357.541 247.032 357.541 233.358C357.541 222.373 349.456 213.183 338.452 211.389C304.315 205.785 276.018 185.61 260.971 159.158L238.512 123.292C229.529 109.842 216.054 100.875 200.333 100.875C193.596 100.875 189.104 103.117 182.366 103.117L92.9823 140.777C84.8459 144.248 77.9111 150.03 73.0397 157.403C68.1684 164.776 65.5754 173.415 65.5832 182.248V235.375C65.5832 247.704 75.6894 257.792 88.0415 257.792C100.394 257.792 110.5 247.704 110.5 235.375V181.575L150.925 165.883L114.991 347.458L26.9548 329.525C14.8273 327.059 2.92443 334.905 0.454016 347.01V347.907C-2.0164 360.012 5.84401 371.893 17.9715 374.358L110.275 392.74C121.756 395.015 133.673 392.726 143.488 386.362C153.304 379.998 160.243 370.061 162.828 358.667Z" fill="white"/>
</g>
<defs>
<filter id="filter0_d" x="0" y="0" width="376.541" height="498.959" filterUnits="userSpaceOnUse" color-interpolation-filters="sRGB">
<feFlood flood-opacity="0" result="BackgroundImageFix"/>
<feColorMatrix in="SourceAlpha" type="matrix" values="0 0 0 0 0 0 0 0 0 0 0 0 0 0 0 0 0 0 127 0"/>
<feOffset dx="15" dy="13"/>
<feGaussianBlur stdDeviation="2"/>
<feColorMatrix type="matrix" values="0 0 0 0 0 0 0 0 0 0 0 0 0 0 0 0 0 0 0.25 0"/>
<feBlend mode="normal" in2="BackgroundImageFix" result="effect1_dropShadow"/>
<feBlend mode="normal" in="SourceGraphic" in2="effect1_dropShadow" result="shape"/>
</filter>
</defs>
</svg>
