<svg width="70" height="84" viewBox="0 0 70 84" fill="none" xmlns="http://www.w3.org/2000/svg">
<g filter="url(#filter0_d)">
<path d="M36.6154 13.125C40.184 13.125 43.0769 10.1869 43.0769 6.5625C43.0769 2.93809 40.184 0 36.6154 0C33.0467 0 30.1538 2.93809 30.1538 6.5625C30.1538 10.1869 33.0467 13.125 36.6154 13.125ZM15.3044 43.4041L13.3121 48.1236H4.30769C1.92904 48.1236 0 50.0828 0 52.4986C0 54.9145 1.92904 56.8736 4.30769 56.8736H14.7337C17.325 56.8736 19.6579 55.3096 20.6715 52.8965L21.8548 50.091L20.4185 49.2297C18.0869 47.8311 16.3719 45.7611 15.3044 43.4041ZM51.6923 30.6236H45.7652L42.2571 23.3434C40.5744 19.8502 37.485 17.2963 33.9406 16.3789L24.3721 13.4887C20.5625 12.559 16.5954 13.4135 13.4898 15.832L8.14962 19.9896C6.26096 21.4594 5.90288 24.2047 7.35269 26.1229C8.8025 28.041 11.5042 28.4006 13.3915 26.9322L18.7344 22.7746C19.7669 21.9693 21.0821 21.6809 22.1362 21.9352L24.115 22.5326L19.0723 34.4805C17.3735 38.5109 18.896 43.2318 22.6127 45.4604L34.0523 52.3195L30.3544 64.3139C29.6437 66.6189 30.9077 69.073 33.1773 69.7949C33.6067 69.9316 34.0402 69.9973 34.4669 69.9973C36.299 69.9973 37.9979 68.7982 38.5754 66.9279L42.8346 53.1111C43.6302 50.2715 42.4456 47.2213 39.9215 45.675L31.6777 40.734L35.8925 30.0316L38.6212 35.6959C39.6981 37.9299 41.9758 39.3723 44.4244 39.3723H51.6923C54.071 39.3723 56 37.4131 56 34.9973C56 32.5814 54.071 30.6236 51.6923 30.6236Z" fill="#3E5D6D"/>
</g>
<defs>
<filter id="filter0_d" x="0" y="0" width="70" height="84" filterUnits="userSpaceOnUse" color-interpolation-filters="sRGB">
<feFlood flood-opacity="0" result="BackgroundImageFix"/>
<feColorMatrix in="SourceAlpha" type="matrix" values="0 0 0 0 0 0 0 0 0 0 0 0 0 0 0 0 0 0 127 0"/>
<feOffset dx="10" dy="10"/>
<feGaussianBlur stdDeviation="2"/>
<feColorMatrix type="matrix" values="0 0 0 0 0 0 0 0 0 0 0 0 0 0 0 0 0 0 0.25 0"/>
<feBlend mode="normal" in2="BackgroundImageFix" result="effect1_dropShadow"/>
<feBlend mode="normal" in="SourceGraphic" in2="effect1_dropShadow" result="shape"/>
</filter>
</defs>
</svg>
