<svg width="79" height="79" viewBox="0 0 79 79" fill="none" xmlns="http://www.w3.org/2000/svg">
<g filter="url(#filter0_d)">
<path d="M8.75 26.25C9.52355 26.25 10.2654 25.9427 10.8124 25.3957C11.3594 24.8487 11.6667 24.1069 11.6667 23.3333V14.5833C11.6667 13.8098 11.974 13.0679 12.5209 12.5209C13.0679 11.9739 13.8098 11.6666 14.5833 11.6666H23.3333C24.1069 11.6666 24.8488 11.3594 25.3957 10.8124C25.9427 10.2654 26.25 9.52353 26.25 8.74998C26.25 7.97643 25.9427 7.23457 25.3957 6.68758C24.8488 6.1406 24.1069 5.83331 23.3333 5.83331H14.5833C12.2627 5.83331 10.0371 6.75519 8.39615 8.39613C6.75521 10.0371 5.83334 12.2627 5.83334 14.5833V23.3333C5.83334 24.1069 6.14063 24.8487 6.68761 25.3957C7.23459 25.9427 7.97645 26.25 8.75 26.25ZM23.3333 58.3333H14.5833C13.8098 58.3333 13.0679 58.026 12.5209 57.479C11.974 56.9321 11.6667 56.1902 11.6667 55.4167V46.6666C11.6667 45.8931 11.3594 45.1512 10.8124 44.6043C10.2654 44.0573 9.52355 43.75 8.75 43.75C7.97645 43.75 7.23459 44.0573 6.68761 44.6043C6.14063 45.1512 5.83334 45.8931 5.83334 46.6666V55.4167C5.83334 57.7373 6.75521 59.9629 8.39615 61.6038C10.0371 63.2448 12.2627 64.1667 14.5833 64.1667H23.3333C24.1069 64.1667 24.8488 63.8594 25.3957 63.3124C25.9427 62.7654 26.25 62.0235 26.25 61.25C26.25 60.4764 25.9427 59.7346 25.3957 59.1876C24.8488 58.6406 24.1069 58.3333 23.3333 58.3333ZM49.5833 37.9166C50.3569 37.9166 51.0988 37.6094 51.6457 37.0624C52.1927 36.5154 52.5 35.7735 52.5 35C52.5 34.2264 52.1927 33.4846 51.6457 32.9376C51.0988 32.3906 50.3569 32.0833 49.5833 32.0833H46.2583C45.7346 30.0771 44.6857 28.2466 43.2195 26.7805C41.7534 25.3143 39.9229 24.2654 37.9167 23.7416V20.4166C37.9167 19.6431 37.6094 18.9012 37.0624 18.3543C36.5154 17.8073 35.7736 17.5 35 17.5C34.2265 17.5 33.4846 17.8073 32.9376 18.3543C32.3906 18.9012 32.0833 19.6431 32.0833 20.4166V23.7416C30.0771 24.2654 28.2467 25.3143 26.7805 26.7805C25.3143 28.2466 24.2654 30.0771 23.7417 32.0833H20.4167C19.6431 32.0833 18.9013 32.3906 18.3543 32.9376C17.8073 33.4846 17.5 34.2264 17.5 35C17.5 35.7735 17.8073 36.5154 18.3543 37.0624C18.9013 37.6094 19.6431 37.9166 20.4167 37.9166H23.7417C24.2654 39.9229 25.3143 41.7533 26.7805 43.2195C28.2467 44.6857 30.0771 45.7346 32.0833 46.2583V49.5833C32.0833 50.3569 32.3906 51.0987 32.9376 51.6457C33.4846 52.1927 34.2265 52.5 35 52.5C35.7736 52.5 36.5154 52.1927 37.0624 51.6457C37.6094 51.0987 37.9167 50.3569 37.9167 49.5833V46.2583C39.9229 45.7346 41.7534 44.6857 43.2195 43.2195C44.6857 41.7533 45.7346 39.9229 46.2583 37.9166H49.5833ZM35 40.8333C33.8463 40.8333 32.7185 40.4912 31.7592 39.8502C30.7999 39.2092 30.0522 38.2982 29.6107 37.2323C29.1692 36.1664 29.0537 34.9935 29.2788 33.862C29.5038 32.7304 30.0594 31.691 30.8752 30.8752C31.691 30.0594 32.7304 29.5038 33.862 29.2787C34.9935 29.0537 36.1664 29.1692 37.2323 29.6107C38.2982 30.0522 39.2093 30.7999 39.8502 31.7592C40.4912 32.7184 40.8333 33.8463 40.8333 35C40.8333 36.5471 40.2188 38.0308 39.1248 39.1248C38.0308 40.2187 36.5471 40.8333 35 40.8333ZM61.25 43.75C60.4765 43.75 59.7346 44.0573 59.1876 44.6043C58.6406 45.1512 58.3333 45.8931 58.3333 46.6666V55.4167C58.3333 56.1902 58.0261 56.9321 57.4791 57.479C56.9321 58.026 56.1902 58.3333 55.4167 58.3333H46.6667C45.8931 58.3333 45.1513 58.6406 44.6043 59.1876C44.0573 59.7346 43.75 60.4764 43.75 61.25C43.75 62.0235 44.0573 62.7654 44.6043 63.3124C45.1513 63.8594 45.8931 64.1667 46.6667 64.1667H55.4167C57.7373 64.1667 59.9629 63.2448 61.6039 61.6038C63.2448 59.9629 64.1667 57.7373 64.1667 55.4167V46.6666C64.1667 45.8931 63.8594 45.1512 63.3124 44.6043C62.7654 44.0573 62.0236 43.75 61.25 43.75ZM55.4167 5.83331H46.6667C45.8931 5.83331 45.1513 6.1406 44.6043 6.68758C44.0573 7.23457 43.75 7.97643 43.75 8.74998C43.75 9.52353 44.0573 10.2654 44.6043 10.8124C45.1513 11.3594 45.8931 11.6666 46.6667 11.6666H55.4167C56.1902 11.6666 56.9321 11.9739 57.4791 12.5209C58.0261 13.0679 58.3333 13.8098 58.3333 14.5833V23.3333C58.3333 24.1069 58.6406 24.8487 59.1876 25.3957C59.7346 25.9427 60.4765 26.25 61.25 26.25C62.0236 26.25 62.7654 25.9427 63.3124 25.3957C63.8594 24.8487 64.1667 24.1069 64.1667 23.3333V14.5833C64.1667 12.2627 63.2448 10.0371 61.6039 8.39613C59.9629 6.75519 57.7373 5.83331 55.4167 5.83331Z" fill="#3E5D6D"/>
</g>
<defs>
<filter id="filter0_d" x="0" y="0" width="84" height="84" filterUnits="userSpaceOnUse" color-interpolation-filters="sRGB">
<feFlood flood-opacity="0" result="BackgroundImageFix"/>
<feColorMatrix in="SourceAlpha" type="matrix" values="0 0 0 0 0 0 0 0 0 0 0 0 0 0 0 0 0 0 127 0"/>
<feOffset dx="10" dy="10"/>
<feGaussianBlur stdDeviation="2"/>
<feColorMatrix type="matrix" values="0 0 0 0 0 0 0 0 0 0 0 0 0 0 0 0 0 0 0.25 0"/>
<feBlend mode="normal" in2="BackgroundImageFix" result="effect1_dropShadow"/>
<feBlend mode="normal" in="SourceGraphic" in2="effect1_dropShadow" result="shape"/>
</filter>
</defs>
</svg>
